/* XPM */
static char *g7q3o_5dglx[] = {
/* columns rows colors chars-per-pixel */
"64 64 96 2 ",
"   c #3A3637",
".  c #3C3837",
"X  c #3C3739",
"o  c #3D393A",
"O  c #463837",
"+  c #433D3C",
"@  c #46423E",
"#  c #49433F",
"$  c #4C483F",
"%  c #443F40",
"&  c #464142",
"*  c #4B4543",
"=  c #4E4844",
"-  c #4F4949",
";  c #504644",
":  c #534B45",
">  c #594D45",
",  c #514748",
"<  c #554D4A",
"1  c #594E4B",
"2  c #545047",
"3  c #595047",
"4  c #57504A",
"5  c #5B534C",
"6  c #5D5451",
"7  c #5F5852",
"8  c #5E585A",
"9  c #61564D",
"0  c #63594F",
"q  c #605752",
"w  c #645A53",
"e  c #695E54",
"r  c #665D59",
"t  c #695E59",
"y  c #6C6156",
"u  c #6D635A",
"i  c #716457",
"p  c #72655C",
"a  c #78675F",
"s  c #75695D",
"d  c #7A6D5E",
"f  c #79705F",
"g  c #6F6763",
"h  c #756760",
"j  c #766A61",
"k  c #7B6D63",
"l  c #756E68",
"z  c #7B6E68",
"x  c #7E7163",
"c  c #7F7168",
"v  c #81705E",
"b  c #816F65",
"n  c #816F68",
"m  c #837465",
"M  c #887567",
"N  c #857866",
"B  c #8A7A67",
"V  c #83746A",
"C  c #8A766B",
"Z  c #86796A",
"A  c #8B7B6B",
"S  c #927D66",
"D  c #907669",
"F  c #927E6C",
"G  c #987F6B",
"H  c #877B72",
"J  c #8D7D71",
"K  c #937E71",
"L  c #987E71",
"P  c #8E806D",
"I  c #94816C",
"U  c #99846D",
"Y  c #8D8173",
"T  c #8F8178",
"R  c #938372",
"E  c #9A8673",
"W  c #9C8974",
"Q  c #938479",
"!  c #94897B",
"~  c #9B8B7A",
"^  c #A0886E",
"/  c #A08D75",
"(  c #A28E7C",
")  c #A3917C",
"_  c #A9937B",
"`  c #978A81",
"'  c #9B8E81",
"]  c #9F9184",
"[  c #A49483",
"{  c #A99583",
"}  c #AB9981",
"|  c #A4968B",
" . c #A79B8D",
".. c #AB9D8C",
"X. c #AFA08D",
"o. c #B1A08C",
/* pixels */
"5 5 7 u 7 5 q r r t u t r w 6 & o , - , 6 < 1 6 q r q t h g r 1 < 6 w 6 < t h g g h k l q g h < , 6 q r r w q w w r 7 8 u 7 6 5 ",
"u V V V V V V Z V V Z Z H V z 6 & | H V V H z p p H J V V C C t q Q V n t L J H Z H H K V H ( q q z C Z V C V z Z V c V V V V p ",
"V k p h k j p h h u t p p t V 6 < Q b b n K C n n H z h h C C q u C z t h H V z c x V k V h L 5 r V g p p p u h h u j h p p x V ",
"H h j k z h h k t i h h h z t 6 ; V h k n n n V n k h h z n h 6 u C t h C n k k h k V V V t C 8 5 i j z j h p t k h j k j l s J ",
"Z k k k k p k t h h j x k k s 1 < c p m M b M n n n n z h z h r 6 r h C V b z a s l c V Z i N q q p k b c j h p u j j j j z k C ",
"7 k j k h h h p h k k k b j Z q 5 ! k a b b C n C n n n h h l 8 t K C V n b k j s k N N x V m 5 w z j k k k k k s j j j k j z 7 ",
"g p p r h h k k j k x f m m B w < R N b a b V V n C C V n h K t t J n V V x x x x N B N Z m q * w z k k k k k k k j j h r h s s ",
"h h h h u p h k x x x m v m N 9 7 _ d d M b m N C H C C C k L r q C V V m Z N B B A A A s w x < w h a k k k k k j s p u j p j k ",
"k c j u h p s d x m N N m m N 9 5 o.U y f F B B V V Z B A A Q 4 t K V C B P Z Z B B Z p u N B 4 5 x k a k k k k s u u h u j V k ",
"k k h q t s d y s P B Z m N R 5 # x P y : w s m M C A K A x r < w A N A B P P B A ! Z m A Z x + 5 B N k c k H p u j h t w l c j ",
"o % & & * * : : & # @ @ = = = # @ : : 2 $ + @ @ + O + + O % + O @ + O = = # $ = = & * = @ @ . o # # @ @ & . X X + X X + & * = + ",
"q 8 t s m V p y 2 y x d y c P N N m B P d x E p 0 d x A m k m m x d N x x N s w o q c V c m P x m x x k x i p 6 & j r r r q 7 6 ",
"u z ' V k A E m 4 ( B P y I I B P Z P P I N ) f i I Z N B N B N Z N N A Z m P i 4 ! ~ Z j N P Z A J A P Z A R w t | m b H ' V i ",
"b V j t j Z A i y P N p x P Z N N N Z B P f I f x B f m m N c N k d d x f f B i 5 B s y c J N P B Z Z B Z C A w r b k b n V C V ",
"n b b k k V x p y c i N I B N m x N B P I f B f P v Z N N m m m p f N m M M i w = w s A Z P Z N x N V B A A F p 5 z a m C M m V ",
"n n n n x x x p 0 s Z I A B N m f m Z A P m N f y P B v N x m s m N N M N N N y 2 x P m B A c x x c Z B A F W j g n a b M M b V ",
"n C C H n k C j y W I P B Z N x f x v P m P N y 7 m N m m N Z m N Z Z Z Z N Z i 7 I d A Y Z N x m N B B F A k 0 t ' k b b M M b ",
"n C C C C b B A w I P B B N c N v Z P Z P f y 2 s f m s x m H Z B Z Z N N f B y 5 E s R P P N m m Z B Y B s f s g J N m m m m M ",
"z n n H B m W Z 5 I B P B B Z B P B Z B y i P y p B x c c k m V J Z N N v x m y 5 W d Z J A Z V Z B A A y m I s l [ s d A M b k ",
"b b H L R R A t 5 R I I P A I B P B P s c R ~ y s R N s N Z Z c Z Y P P v P I y 5 ) Y T E Y B A B J W a Z A ~ u u } E e p m b n ",
"u u h V b i 6 1 $ i i v B v v v x N m x c c p @ 7 j p q e g l p r x s s p s x 5 3 I Y u Z Z m N N Z A y s s s 1 > w i 9 ; ; q i ",
"X O , , * ; > ; $ @ $ $ 2 $ $ $ = # = < 2 4 2 4 5 6 7 7 < 7 r < * @ * : : : : 2 5 2 4 q y 9 5 : 3 4 5 > : : < : > 9 9 e > > , % ",
"1 E ~ E ~ W U U I I I P U U I 0 9 R B B s ( R P R R R ~ Z ` [ q l ] m m N V s u s B R P I B f 9 w R ) I E U W C l m U U C F b k ",
"t K C L F I F I I I I I I U / i s R N s f P Z P Z A A J Y H ( 7 T R C B P [ I m m ] V x N I U 5 e E I I I I R U / A M D R n F C ",
"r K C D K F I I S G S U U S I 0 f I f s I B Z N c Z P Y P s W w j Z m B A B A A M v b b M S d 3 i F U F F I F G U U I B A k V J ",
"w K D K F U U F S I I B S I U i y s k I P Z Z m x Z P A R s R w j m M A F A D A A A M m m N f q i I U G I D F F G S U U L L A g ",
"t L D D D F I I S S U S S U U y y P I P A A N x x N A Y B V P w T Y m B A B A F A A M N v m a 7 y U U U L R A G S G S M C D R r ",
"u L K L S G U S S S S U I U U y f E P A A m m x x N Z Z Z J u < l ~ N b M A I A B F A B b v I 5 i E I G F I U G G I G M C D K w ",
"J V C K J L U G U S D S I I I i i I J Z Z C Z N Z P P Z c y s < Y A N M N C B B A D A B m m W 7 y I G U I I S G G I D M M D K q ",
"C H z C k C S ^ U S S S I S I e i I B Z Z B Z B Z Z B j y N R 5 ' ( a d F B N V m N N M m P ! < u ( S I I S S S S G D n M M K t ",
"V C D K E G M M S / U / ^ _ / 0 s W R Y R R R Y Y R B c Q ] Y < z [ R 9 y m A A F F I U I B s : y W ( E I I I U U / L L L L ( q ",
", 5 t 5 w e e > 3 9 9 3 9 e 3 > : < > y w w w w w y r w q 5 @   < 1 3 ; + ; 3 w 9 9 e y 9 5 4 . 2 9 9 9 9 9 e 9 0 9 6 6 6 t 1 % ",
"8 q < 6 r 7 5 5 # q i 9 e 0 e 0 9 5 5 5 5 5 3 1 * : < e w 7 w w e u u y w 7 @   @ * = : 1 3 5 3 5 9 w y i w 5 # 2 3 6 6 6 6 6 8 ",
"V Z V Z A A B p w ( / U U / U U W U U E W E ) e s W R Q R R I R A Q Z x Q W P : T [ A N Y ~ m s k ~ J B A I A 9 y N Z Z J A m V ",
"a j k j j j V k e U S B S I S G S F I G I I / t i R Z A B Z Z Z A Z B d y m P 5 Z A N B A W R M C A k m N S A 5 u N u s j p p j ",
"k k k c c x l Z y U S S S I U I G G I S I I U e p R J A Z N N N B B A Y x y s 4 s C m B A B A A B m m v M B d 5 q u j k k j h t ",
"u k k k k x c c e U I I S I I G I I I D G I U u x W J A A N m x x N P N Z P y 2 c c V B F A F A A A C m m m k 0 w u c c c k k l ",
"k k z z k k V < q W S S S I I G S F I I U I U y w A I R Y B m x f x Z P Z m P 0 H ' m N B B K K A F A N v b x 5 y V l c V V x V ",
"c b j j u j l u u I U ^ E U I I G I D U F U I i u s l R A Z N c N Z B P I s R 0 x ! A b N B F A A D A B b m E 5 q x c c V V V V ",
"k j j j k j j p Z B c I A F ^ U I I S B U I I i s R k s P P B N m Z P P P f W 0 R Q d B M M C Z C A B B v N W 5 q k c Z c Z Z H ",
"h s h j p j C u m I Z W A B A W I U G I I U W e s ~ B k d R B Z N P P P P N / 7 ! { x i B A B m N m Z B N I I = 7 c z z V Z Z H ",
"u h h u q k c u i x I B U I v a v I I I F ~ A w 5 B V m u ~ P P P P P I c Q / 9 y H m 5 5 y m A C B I I A k y * 1 V V k k z H z ",
"* * & * & & & + @ > 3 < 3 < 3 = + + + * , 5 > 1 = = < > 5 5 q 5 5 5 5 5 4 5 w 4 4 5 4 5 = = 4 2 : : 3 3 = = : o & & & % * & * * ",
"u j k J c k x x x f B B B Z k q ; Z x i s s i e y i m M P B p 0 3 f v f u Y P Z Z A A R j P ~ 7 q d Z Z Z B x m k c z V H x h g ",
"c Z k k x c k k x x m A m m P w 1 X.I F P [ ~ m d ~ ~ m m I U y y / Z B s R J A A A P P Y Z / y u A m m B V m x j k k k j k V l ",
"T k j k k k h x u p d f f m N w 1 A m M A A F B B M a v m I N q s P x u A P B N V Z P B P s E w e B x v x f d s k h k k k j k Z ",
"~ k k k m j k j y k f N M N s 5 1 Z m A A I B A B B M m N N v y i f p A P A A m x N P P P s I y 0 i N N Z m m p h j h z k k j K ",
"l c k k z k l u d x m N m m A q q ! k B A S A B D B M N b m f u y x P P A A B c x N Z P B x P y y N m m N N m m i j k k k k m u ",
"t x h j k k k k k k N m N c P w = ' J m N M F D A F A B m v A w x W F J A Z N x c N A Z N P f 5 p B N N N N N b d k k k h k j 8 ",
"V h g u j h k k k m N Z Z m Z 0 8 ~ N C m M A A B A B A B b I s y R A K A V N c N Z A B N y s 2 y N m N Z N N N x j h p t s i s ",
"c V s k h g h h k m m m x x N 5 8 X.M s S M M m M V N B N N ) w y F Z Z Z A B P B B B m 9 f P 5 y m x N m N N N k p i h k j k p ",
"J Z x t k k k h x P P P Z P W w 4 ) ) i w m B B B Z F U I I x 5 u W I J P R P P A R B d A W W 3 y I B Z P P Y N s k k k r k V c ",
"r w r 6 5 q t 5 6 s u u p u s - + 5 9 5 = * 3 y i e i a y 9 5 $ = y w s s s f s k c k s k p 5 . 2 y u y y y s 7 q t q 1 < r r 6 ",
"< , * < w w < , * @ : > 2 6 y y w y u u 5 6 u 4 = < 3 5 < 5 5 3 7 < 4 5 5 5 2 = . o 2 4 5 3 5 5 5 2 4 5 6 & @ & + # + * , * , * ",
"h h J H H H n p : Y R I d ! ` Y P P R ~ R A } m i I Y R I P I R P P I R R R P u @ P W ! N Z R B P I I P P P W p q  .C k n H g q ",
"c H J k h n K h 5 R N f y Y Z Z Z Z A Z R x R k s A x m c x x f f x x c s s Z p 4 P P y i Z B N Z Z P Z Z Z R y g ~ b b V Q J j ",
"J b h h k V z w q Y x s Z K B Z m N P P Y j P x N m m m B N m N s s k x x x k r < x y p Z N m V N N V J A A R p w B b b b b b b ",
"C n n n j z h t 9 u s P I Z Z m x N Z Y Q N V m N B m m N f m s d N m m x c s q * w c c z V k j j f m A J A U k w m k V C n b b ",
"C n C n k h k r 7 P R I B B V x x c Z K Z B Z j 4 P m N m m V x m m m m x j c r 1 V k z c c k g s j V A K R R i h ! j k n n b n ",
"C n n n b a n z q R A B V m x x x N A A Z R j 1 y f f i x k x m f m k k k l l y 1 H t Z V V k j j k c C K V p e y T V h k b m C ",
"V n n n b h n Z 1 C V V V x c m Z Z A A Z y p w u x s p p h j k z z k k k k z r 6 J t V V V z k j k V C k h H j h L p h b b k b ",
"V z h z b z L u < C z z x n c V B V Z x u m U y u N k p h h u h k k z z k k V r < Q j Z V n z z z V V h t z Z t g ] b r k b k b ",
"K D n J C C t 1 1 H V C V H Z B c A P x P R ! 4 u H x y p k h h p C H Z V H Y q < ~ J z K C V n n H Q i V V K q , H C 5 , t k C ",
"< % % , ; % * + + * % 1 5 < 6 < 6 7 7 8 7 7 = . = 2 - & * , < < % < , < < 6 < & & r r < r r r 6 w w w < < 1 & & % * * , O % % < "
};
